<?xml version="1.0" encoding="utf-8"?>
<!-- Generator: Adobe Illustrator 19.0.0, SVG Export Plug-In . SVG Version: 6.00 Build 0)  -->
<svg version="1.1" id="Layer_1" xmlns="http://www.w3.org/2000/svg" xmlns:xlink="http://www.w3.org/1999/xlink" x="0px" y="0px"
	 viewBox="0 0 50 50" style="enable-background:new 0 0 50 50;" xml:space="preserve">
<style type="text/css">
	.st0{fill:#F79D1F;}
	.st1{fill:#2EACCE;}
	.st2{fill:#FFFFFF;}
</style>
<g id="XMLID_6826_">
	<g id="XMLID_6831_">
		<circle id="XMLID_1_" class="st0" cx="25.1" cy="25.3" r="22.9"/>
		<path id="XMLID_2_" class="st1" d="M25.1,49.4c-13.3,0-24.1-10.8-24.1-24.1S11.9,1.2,25.1,1.2S49.2,12,49.2,25.3
			S38.4,49.4,25.1,49.4z M25.1,3.6c-12,0-21.7,9.7-21.7,21.7c0,12,9.7,21.7,21.7,21.7c12,0,21.7-9.7,21.7-21.7
			C46.8,13.3,37.1,3.6,25.1,3.6z"/>
	</g>
	<path id="XMLID_4_" class="st2" d="M40.3,29.1c-0.6-0.5-1.5-0.4-2.1-0.1c-5.1-0.9-5.7-2.6-5.7-2.6c0.6-1.9,0.6-3.6,0.3-5
		c0.4,0.4,0.8,0.9,1.3,1.4c3,2.9,6.6-1.4,4.2-0.5c-2.3,0.9-5.9-7.1-6.8-7c-0.9,0.1-2.3-1-2.7-1c-0.3,0-1,1.2-1.3,1.6
		c-4-1.3-6.9,0.2-8.7,1.8l-1.5-0.5l0,0.2c-0.7-0.2-1.5,0.9-3.2,1c-2.2,0.1-3.3,9.2-7.8,9.6c-0.7,0.1,2.9,3.5,5.9,1.5
		c1.6-1.1,2.9-3.1,3.8-5.1c0.1,0.3,0.1,0.7,0.2,1.1c0,0.1,0,0.2,0.1,0.3c0,0.1,0,0.1,0,0.2c0,0,0,0,0,0l0,0c0.4,1.5,1.1,3.1,1.7,4.5
		c0.9,2,2.9,3.3,5.1,3.2c1.9-0.1,4.1-0.2,5-0.1c1.9,0.3,3.1,0.8,3.9,0.8c8.4,0.9,8.7-2,8.2-3.8C40.5,30,40.6,29.4,40.3,29.1z"/>
</g>
</svg>
