<?xml version="1.0" encoding="utf-8"?>
<!-- Generator: Adobe Illustrator 19.2.0, SVG Export Plug-In . SVG Version: 6.00 Build 0)  -->
<svg version="1.1" xmlns="http://www.w3.org/2000/svg" xmlns:xlink="http://www.w3.org/1999/xlink" x="0px" y="0px"
	 viewBox="0 0 281.3 266.5" style="enable-background:new 0 0 281.3 266.5;" xml:space="preserve">
<style type="text/css">
	.st0{fill-rule:evenodd;clip-rule:evenodd;fill:#FFFFFF;}
</style>
<g id="_x32_">
	<g>
		<path class="st0" d="M140.6,17.5c-63.9,0-115.7,51.8-115.7,115.7S76.7,249,140.6,249c63.9,0,115.7-51.8,115.7-115.7
			S204.5,17.5,140.6,17.5z M171.1,122.9l-1,11.1H150c0,30,0,68,0,68h-28c0,0,0-37,0-68h-13v-11.3V106h13V93.8
			c0-11.2,5.3-28.7,28.8-28.7l21.2,0.1V89c0,0-12.6,0-15.1,0c-2.5,0-5.9,0.9-5.9,6.2V106h21.6L171.1,122.9z"/>
	</g>
</g>
<g id="Layer_1">
</g>
</svg>
