<?xml version="1.0" encoding="utf-8"?>
<!-- Generator: Adobe Illustrator 19.0.0, SVG Export Plug-In . SVG Version: 6.00 Build 0)  -->
<svg version="1.1" id="Layer_1" xmlns="http://www.w3.org/2000/svg" xmlns:xlink="http://www.w3.org/1999/xlink" x="0px" y="0px"
	 viewBox="0 0 50 50" style="enable-background:new 0 0 50 50;" xml:space="preserve">
<style type="text/css">
	.st0{fill:#5E5CA7;}
	.st1{fill:#F0CE17;}
	.st2{fill:#FFFFFF;}
</style>
<g id="XMLID_4226_">
	<circle id="XMLID_1_" class="st0" cx="25.1" cy="25.3" r="22.7"/>
	<path id="XMLID_3_" class="st1" d="M25.1,49.2c-13.2,0-23.9-10.7-23.9-23.9c0-13.2,10.7-23.9,23.9-23.9S49,12.1,49,25.3
		C49,38.5,38.3,49.2,25.1,49.2z M25.1,3.8c-11.9,0-21.5,9.7-21.5,21.5c0,11.9,9.7,21.5,21.5,21.5c11.9,0,21.5-9.7,21.5-21.5
		C46.6,13.4,37,3.8,25.1,3.8z"/>
</g>
<path id="XMLID_2_" class="st2" d="M35.7,27.4c-0.6-1.2-0.8-1.7-0.9-2.3c-0.1-0.5-0.2-0.9-0.3-1.4c2.8-2,1.8-12.1-0.2-9.3
	c-1.8,2.6-4.7,3.9-5.8,4.3c-0.9-0.2-2-0.2-3.3-0.2c-1.4-0.1-2.6,0-3.6,0.2c-1-0.4-4.1-1.6-6-4.4c-2-2.9-3.1,8.4,0.3,9.5
	c-0.1,0.4-0.2,0.8-0.3,1.2c-0.1,0.6-0.3,1.1-0.9,2.3c-0.6,1.2-2.9,1.4-2.9,1.4c2.5,8.7,12.5,8,13.4,7.9c2.4,0.1,11.4,0,13.6-7.9
	C38.7,28.8,36.4,28.5,35.7,27.4z"/>
</svg>
