<?xml version="1.0" encoding="utf-8"?>
<!-- Generator: Adobe Illustrator 19.0.0, SVG Export Plug-In . SVG Version: 6.00 Build 0)  -->
<svg version="1.1" id="Layer_1" xmlns="http://www.w3.org/2000/svg" xmlns:xlink="http://www.w3.org/1999/xlink" x="0px" y="0px"
	 viewBox="0 0 50 50" style="enable-background:new 0 0 50 50;" xml:space="preserve">
<style type="text/css">
	.st0{fill:#D04486;}
	.st1{fill:#B2CF35;}
	.st2{fill:#FFFFFF;}
</style>
<g id="XMLID_6789_">
	<g id="XMLID_5591_">
		<circle id="XMLID_3_" class="st0" cx="25.2" cy="24.5" r="21.5"/>
		<path id="XMLID_4_" class="st1" d="M25.2,47.1C12.8,47.1,2.7,37,2.7,24.5S12.8,1.9,25.2,1.9s22.6,10.1,22.6,22.6
			S37.7,47.1,25.2,47.1z M25.2,4.2C14,4.2,4.9,13.3,4.9,24.5c0,11.2,9.1,20.3,20.3,20.3s20.3-9.1,20.3-20.3
			C45.6,13.3,36.5,4.2,25.2,4.2z"/>
	</g>
	<g id="XMLID_1_">
		<g id="XMLID_2_">
			<path id="XMLID_19_" class="st2" d="M13.3,10.7C13.3,10.7,13.3,10.7,13.3,10.7C13.3,10.6,13.3,10.6,13.3,10.7z"/>
		</g>
		<g id="XMLID_16_">
			<path id="XMLID_20_" class="st2" d="M31.7,19.4c1.8-1.3,4.2-7.7,4.5-8.6c-0.4,1-5.7,2.8-7.5,5.9C27.1,19.3,27,24.7,27,26
				c-0.6-0.1-1-0.2-2-0.2v0c0,0,0,0,0,0c0,0,0,0,0,0v0c-1,0-1.7,0.1-2.6,0.3c0-1,0.1-6.7-1.6-9.5c-1.8-3.1-7.1-4.9-7.5-5.9
				c0.3,0.9,2.7,7.3,4.5,8.6c2.6,1.9,4,6,3.6,7c0,0,0,0.1,0,0.1c-0.8,0.3-1.5,0.6-2.2,1.1c-0.6,0.4-1.2,1-1.7,1.6
				c-1.3,1.5-1.8,3.4-1,5.4c1,2.6,3.3,3.6,5.8,3.9c0.6,0.1,1.3,0.1,1.9,0.1c0.2,0,0.7,0,0.7,0v0c0,0-0.1,0-0.1,0c0.1,0,0.1,0,0.1,0
				v0c0,0,0.4,0,0.6,0c0.6,0,1.3-0.1,2-0.1c2.5-0.3,4.9-1.3,5.9-3.9c0.8-1.9,0.3-3.9-1-5.4c-0.5-0.6-1-1.1-1.6-1.6
				c-0.8-0.6-1.7-1-2.7-1.3C27.8,25.1,29.1,21.2,31.7,19.4z"/>
		</g>
		<g id="XMLID_17_">
			<path id="XMLID_21_" class="st2" d="M36.2,10.7C36.2,10.7,36.2,10.7,36.2,10.7C36.2,10.6,36.2,10.6,36.2,10.7z"/>
		</g>
	</g>
</g>
</svg>
