<?xml version="1.0" encoding="utf-8"?>
<!-- Generator: Adobe Illustrator 19.0.0, SVG Export Plug-In . SVG Version: 6.00 Build 0)  -->
<svg version="1.1" id="Layer_1" xmlns="http://www.w3.org/2000/svg" xmlns:xlink="http://www.w3.org/1999/xlink" x="0px" y="0px"
	 viewBox="0 0 50 50" style="enable-background:new 0 0 50 50;" xml:space="preserve">
<style type="text/css">
	.st0{fill:#2EADD0;}
	.st1{fill:#B4D034;}
	.st2{fill:#F89D1C;}
</style>
<g id="XMLID_4093_">
	<path id="XMLID_4111_" class="st0" d="M5.7,24.6c0,0,4.3-10.6,14.6-14.3c2.3-0.8,7.5-2.1,9.4,2.6c0,0,0.9,1.9,1.3,3.8
		c0.3,2,0.9,5.5,1.1,5.9c0.2,0.5,1.3,2.9,3.2,2.6c1.9-0.2,2.2-2.4,2.6-3.7c0.3-1.2,0.8-8.3,3.4-8.9c2.6-0.5,4.8,6.4,4.8,6.4
		s1.2,4.7,1.3,5.6c0.1,0.9,0.7,4.8,0.4,8.7c-0.4,4-1.8,8-3.7,8.2c-0.6,0-0.8-0.1-0.2-2.5c0.6-2.3,1.5-6.2,0-6.8
		c-1.5-0.6-3.8,2.6-4.9,5.2c-1.1,2.5-3,3.8-5.8,3.6c-2.9-0.2-3.1-2.7-2.7-6.9c0.4-4.2,0-8.7-4.1-10.2c-4.1-1.5-8.7,10.5-9,11.1
		c-0.3,0.6-1.6,8.3-8.1,7.1C2.5,41,1.2,33.5,5.7,24.6z"/>
	<path id="XMLID_4101_" class="st1" d="M2.7,35.6c0,0,0-0.2-0.1-0.5c0-0.3-0.1-0.7-0.1-1.3c-0.1-1.1,0-2.8,0.3-4.7
		c0.2-1,0.4-2,0.8-3.1C4,24.9,4.4,23.8,5,22.7c0.6-1.1,1.2-2.2,1.9-3.3c0.7-1.1,1.6-2.1,2.4-3.1c0.9-1,1.8-1.9,2.8-2.8
		c1-0.9,2-1.6,3-2.3c1-0.7,2.1-1.3,3.1-1.7c1-0.4,2.1-0.7,3.1-0.9c1-0.2,1.9-0.2,2.7-0.1c0.8,0.1,1.5,0.3,2,0.5
		c0.5,0.2,0.9,0.4,1.2,0.6c0.3,0.2,0.4,0.3,0.4,0.3s-0.1-0.1-0.4-0.2c-0.3-0.1-0.7-0.3-1.2-0.5C25.4,9.1,24.8,9,24,9
		c-0.8,0-1.6,0-2.6,0.2c-0.9,0.2-1.9,0.6-2.9,1c-1,0.5-2,1.1-2.9,1.8c-1,0.7-1.9,1.5-2.9,2.3c-0.9,0.9-1.8,1.8-2.7,2.7
		c-0.8,1-1.7,1.9-2.4,3c-0.7,1-1.4,2.1-1.9,3.1c-0.6,1.1-1,2.1-1.4,3.1c-0.4,1-0.7,2-0.9,3c-0.5,1.9-0.6,3.5-0.7,4.6
		c0,0.6,0,1,0,1.3C2.7,35.4,2.7,35.6,2.7,35.6z"/>
	<path id="XMLID_4100_" class="st2" d="M2.1,35.1c0,0-0.2-0.4-0.3-1.1c-0.1-0.4-0.2-0.8-0.2-1.4c-0.1-0.5-0.1-1.1-0.1-1.8
		c0-0.7,0-1.4,0.1-2.1c0.1-0.7,0.2-1.5,0.4-2.3c0.2-0.8,0.5-1.6,0.8-2.4c0.3-0.8,0.7-1.6,1.1-2.4l0.3-0.6l0.3-0.6
		C4.7,20.3,4.8,20.2,5,20c0.1-0.2,0.2-0.4,0.4-0.5c0.1-0.2,0.2-0.4,0.4-0.5c0.1-0.2,0.3-0.3,0.4-0.5c0.1-0.2,0.3-0.3,0.4-0.5
		c0.1-0.2,0.3-0.3,0.4-0.5c0.5-0.6,1.1-1.2,1.6-1.7c0.5-0.5,1-1,1.5-1.4c0.2-0.2,0.5-0.4,0.7-0.6c0.2-0.2,0.5-0.4,0.7-0.5
		c0.2-0.2,0.4-0.3,0.6-0.4c0.2-0.1,0.4-0.3,0.5-0.4c0.3-0.2,0.6-0.4,0.7-0.5c0.2-0.1,0.3-0.2,0.3-0.2s-0.1,0.1-0.2,0.2
		c-0.1,0.1-0.4,0.3-0.6,0.6c-0.1,0.1-0.3,0.3-0.5,0.4c-0.2,0.2-0.3,0.3-0.5,0.5c-0.2,0.2-0.4,0.4-0.6,0.6c-0.2,0.2-0.4,0.4-0.6,0.7
		c-0.5,0.5-0.9,1-1.4,1.5c-0.5,0.6-1,1.1-1.5,1.8c-0.1,0.2-0.3,0.3-0.4,0.5c-0.1,0.2-0.2,0.3-0.4,0.5c-0.1,0.2-0.2,0.3-0.4,0.5
		c-0.1,0.2-0.2,0.3-0.3,0.5c-0.1,0.2-0.2,0.3-0.4,0.5c-0.1,0.2-0.2,0.4-0.3,0.5L5,21.5L4.7,22c-0.4,0.7-0.8,1.5-1.1,2.3
		c-0.3,0.8-0.6,1.5-0.8,2.3c-0.2,0.8-0.4,1.5-0.5,2.2c-0.1,0.7-0.2,1.4-0.3,2c-0.1,1.3,0,2.3,0,3.1C2,34.7,2.1,35.1,2.1,35.1z"/>
	<path id="XMLID_4099_" class="st1" d="M33.7,24.2c0,0,0.1,0.1,0.2,0.1c0.1,0.1,0.3,0.2,0.5,0.2c0.2,0.1,0.5,0.1,0.8-0.1
		c0.3-0.2,0.5-0.4,0.7-0.8c0.2-0.4,0.4-0.8,0.5-1.2c0.1-0.5,0.3-1,0.4-1.5c0.1-0.5,0.2-1.1,0.3-1.6c0.1-0.6,0.1-1.1,0.2-1.7
		c0.1-0.6,0.2-1.2,0.4-1.7c0.1-0.6,0.3-1.1,0.5-1.6c0.2-0.5,0.5-1,0.8-1.4c0.2-0.2,0.4-0.4,0.6-0.6c0.2-0.2,0.5-0.3,0.7-0.3
		c0.5-0.1,1,0,1.3,0.2c0.3,0.2,0.6,0.4,0.8,0.5c0.2,0.2,0.3,0.3,0.4,0.4c0.1,0.1,0.1,0.2,0.1,0.2l0,0c0,0-0.1,0-0.2-0.1
		c-0.1-0.1-0.3-0.2-0.5-0.3c-0.2-0.1-0.5-0.3-0.8-0.4c-0.3-0.1-0.7-0.1-1,0c-0.3,0.1-0.7,0.4-0.9,0.8c-0.3,0.4-0.5,0.8-0.7,1.3
		c-0.2,0.5-0.3,1-0.5,1.6c-0.1,0.5-0.2,1.1-0.3,1.7c-0.1,0.6-0.2,1.1-0.3,1.7c-0.1,0.6-0.2,1.1-0.4,1.7c-0.1,0.5-0.3,1-0.5,1.5
		c-0.2,0.5-0.4,0.9-0.7,1.3c-0.3,0.4-0.6,0.7-1,0.8c-0.4,0.1-0.7,0.1-1,0c-0.2-0.1-0.4-0.3-0.5-0.4C33.8,24.3,33.7,24.2,33.7,24.2z"
		/>
	<path id="XMLID_4098_" class="st2" d="M34.3,24.2c0,0,0,0,0.1,0c0.1,0,0.2,0,0.3-0.1c0.1-0.1,0.3-0.2,0.4-0.3
		c0.1-0.2,0.2-0.4,0.3-0.6c0.2-0.5,0.3-1.1,0.5-1.8c0.1-0.3,0.1-0.7,0.2-1c0-0.4,0.1-0.7,0.1-1.1c0-0.4,0.1-0.7,0.1-1.1
		c0.1-0.4,0.1-0.7,0.2-1c0.1-0.3,0.1-0.7,0.2-1c0.1-0.3,0.2-0.6,0.3-0.9c0.1-0.3,0.2-0.5,0.3-0.7c0.1-0.2,0.2-0.4,0.3-0.5
		c0.1-0.1,0.2-0.2,0.2-0.3c0.1-0.1,0.1-0.1,0.1-0.1s0,0-0.1,0.1c0,0.1-0.1,0.2-0.2,0.3c0,0.1-0.1,0.1-0.1,0.2c0,0.1-0.1,0.2-0.1,0.3
		c-0.1,0.2-0.1,0.4-0.2,0.7c-0.1,0.3-0.1,0.5-0.2,0.9c0,0.3-0.1,0.6-0.1,1c-0.1,0.7-0.2,1.4-0.2,2.1c0,0.4-0.1,0.7-0.1,1.1
		c-0.1,0.4-0.1,0.7-0.2,1.1c-0.2,0.7-0.4,1.3-0.6,1.8c-0.1,0.2-0.3,0.5-0.5,0.6c-0.2,0.2-0.4,0.3-0.5,0.3c-0.2,0-0.3,0-0.4,0
		C34.3,24.2,34.3,24.2,34.3,24.2z"/>
	<path id="XMLID_4097_" class="st1" d="M43,32.6c0,0,0,0,0.1,0c0.1,0,0.2,0,0.3,0c0.1,0,0.1,0,0.2,0.1c0.1,0,0.2,0.1,0.2,0.2
		c0.2,0.1,0.3,0.3,0.3,0.5c0.2,0.4,0.2,1,0.2,1.5c0,0.5-0.1,1.1-0.2,1.6c-0.2,1.1-0.5,2.2-0.8,3c-0.2,0.8-0.4,1.3-0.4,1.3
		s0.1-0.6,0.2-1.4c0.1-0.4,0.2-0.9,0.3-1.4c0.1-0.5,0.2-1.1,0.3-1.6c0-0.3,0.1-0.5,0.1-0.8c0-0.3,0-0.5,0-0.8c0-0.5,0-1-0.2-1.3
		c-0.1-0.2-0.1-0.3-0.2-0.4c0-0.1-0.1-0.1-0.1-0.2c0,0-0.1-0.1-0.1-0.1c0,0-0.1-0.1-0.1-0.1C43.1,32.7,43.1,32.7,43,32.6
		C43,32.6,43,32.6,43,32.6z"/>
	<path id="XMLID_4096_" class="st2" d="M42.5,32.8C42.5,32.8,42.6,32.8,42.5,32.8c0.1,0,0.2,0.1,0.2,0.1c0.1,0,0.2,0.1,0.2,0.2
		c0.1,0.1,0.2,0.2,0.3,0.3c0.2,0.2,0.3,0.6,0.3,0.9c0.1,0.3,0.1,0.7,0,1.1c0,0.4-0.1,0.7-0.2,1c-0.1,0.3-0.2,0.6-0.2,0.9
		c-0.1,0.3-0.1,0.5-0.2,0.6C43,38,43,38.1,43,38.1l0,0c0,0,0-0.1,0-0.2c0-0.2,0-0.4,0.1-0.6c0-0.3,0.1-0.6,0.1-0.9
		c0-0.3,0.1-0.7,0.1-1c0-0.2,0-0.3,0-0.5c0-0.2,0-0.3,0-0.5c0-0.2-0.1-0.3-0.1-0.4c0-0.1-0.1-0.3-0.1-0.4c0-0.1-0.1-0.2-0.1-0.3
		c-0.1-0.1-0.1-0.2-0.1-0.2C42.7,32.9,42.6,32.9,42.5,32.8C42.6,32.8,42.5,32.8,42.5,32.8L42.5,32.8z"/>
	<path id="XMLID_4095_" class="st1" d="M25.7,24.6c0,0,0.1,0,0.2,0c0.1,0,0.1,0,0.2,0.1c0.1,0,0.2,0.1,0.3,0.1
		c0.2,0.1,0.5,0.2,0.8,0.4c0.3,0.2,0.6,0.4,0.9,0.8c0.3,0.3,0.6,0.7,0.8,1.1c0.2,0.4,0.4,0.9,0.6,1.4c0.3,1,0.5,2.1,0.5,3.3
		c0,0.3,0,0.6-0.1,0.8l-0.1,0.4c0,0.1,0,0.3,0,0.4c-0.1,0.5-0.1,1-0.1,1.5c0,0.5,0,1,0,1.4c0,0.5,0,0.9,0,1.3
		c0.1,0.8,0.2,1.4,0.3,1.9c0.1,0.2,0.1,0.4,0.2,0.5c0,0.1,0.1,0.2,0.1,0.2s0,0-0.1-0.2c-0.1-0.1-0.2-0.3-0.3-0.5
		c-0.2-0.4-0.5-1.1-0.7-1.9c-0.2-0.8-0.3-1.8-0.3-2.8c0-0.5,0-1.1,0.1-1.6c0-0.1,0-0.3,0-0.4l0-0.4c0-0.2,0.1-0.5,0.1-0.8
		c0-0.5,0-1,0-1.5c0-0.5-0.1-1-0.2-1.5c-0.1-0.5-0.3-0.9-0.4-1.3c-0.2-0.4-0.4-0.8-0.6-1.1c-0.2-0.3-0.4-0.6-0.7-0.8
		c-0.2-0.2-0.4-0.4-0.6-0.5c-0.1-0.1-0.2-0.1-0.3-0.2c-0.1,0-0.1-0.1-0.2-0.1C25.7,24.6,25.7,24.6,25.7,24.6L25.7,24.6z"/>
	<path id="XMLID_4094_" class="st2" d="M26.8,26.2c0,0,0,0,0.1,0.1c0.1,0.1,0.2,0.2,0.3,0.3c0.3,0.3,0.6,0.8,0.8,1.4
		c0.2,0.7,0.3,1.5,0.3,2.3c0,0.4,0,0.8-0.1,1.3c0,0.4-0.1,0.8-0.1,1.3c0,0.4,0,0.8,0,1.3c0,0.4,0,0.8,0.1,1.2
		c0.1,0.8,0.2,1.5,0.3,2.1c0.1,0.3,0.2,0.6,0.2,0.8c0.1,0.2,0.2,0.4,0.3,0.6c0.1,0.2,0.2,0.3,0.2,0.3c0,0,0.1,0.1,0.1,0.1
		c0,0,0,0,0,0l-0.1,0.1c0,0,0,0,0,0c0,0-0.1,0-0.1-0.1c-0.1-0.1-0.2-0.2-0.3-0.3c-0.2-0.3-0.5-0.8-0.7-1.4c-0.1-0.3-0.2-0.7-0.3-1
		c-0.1-0.4-0.2-0.8-0.2-1.2c-0.1-0.4-0.1-0.8-0.1-1.3c0-0.4,0-0.9,0-1.3c0-0.4,0-0.9,0.1-1.3c0-0.4,0-0.8,0-1.2c0-0.4,0-0.8-0.1-1.1
		c0-0.4-0.1-0.7-0.2-1c-0.1-0.6-0.3-1.1-0.4-1.4c-0.1-0.2-0.1-0.3-0.2-0.4C26.8,26.4,26.7,26.3,26.8,26.2L26.8,26.2z"/>
</g>
</svg>
